<svg width="331" height="35" viewBox="0 0 331 35" fill="none" xmlns="http://www.w3.org/2000/svg">
<path d="M7.096 0.399998L17.128 27.52C17.128 27.552 17.16 27.632 17.224 27.76C17.288 27.856 17.336 27.936 17.368 28C17.432 28.032 17.496 28.08 17.56 28.144C17.656 28.208 17.752 28.24 17.848 28.24C17.944 28.24 18.024 28.208 18.088 28.144C18.184 28.08 18.248 28.032 18.28 28C18.344 27.936 18.408 27.856 18.472 27.76C18.536 27.632 18.568 27.552 18.568 27.52L28.6 0.399998H35.464L23.272 30.736C22.312 33.168 20.504 34.384 17.848 34.384C15.192 34.384 13.384 33.168 12.424 30.736L0.232 0.399998H7.096ZM43.9191 34H37.5831V0.399998H43.9191V34ZM76.6049 28.96V34H54.5729C51.3089 34 49.6769 32.32 49.6769 28.96V5.44C49.6769 2.08 51.3089 0.399998 54.5729 0.399998H76.4129V5.44H58.4129C57.4529 5.44 56.8129 5.6 56.4929 5.92C56.1729 6.24 56.0129 6.88 56.0129 7.84V14.32H75.9329V19.36H56.0129V26.56C56.0129 27.52 56.1729 28.16 56.4929 28.48C56.8129 28.8 57.4529 28.96 58.4129 28.96H76.6049ZM97.9713 34H91.6353V5.44H78.5312V0.399998H111.123V5.44H97.9713V34ZM132.471 34H126.135V5.44H113.031V0.399998H145.623V5.44H132.471V34ZM175.417 28.96V34H153.385C150.121 34 148.489 32.32 148.489 28.96V5.44C148.489 2.08 150.121 0.399998 153.385 0.399998H175.225V5.44H157.225C156.265 5.44 155.625 5.6 155.305 5.92C154.985 6.24 154.825 6.88 154.825 7.84V14.32H174.745V19.36H154.825V26.56C154.825 27.52 154.985 28.16 155.305 28.48C155.625 28.8 156.265 28.96 157.225 28.96H175.417ZM206.539 34H184.651C181.387 34 179.755 32.32 179.755 28.96V0.399998H186.091V26.56C186.091 27.52 186.251 28.16 186.571 28.48C186.891 28.8 187.531 28.96 188.491 28.96H206.539V34ZM220.63 34V5.44C220.63 2.08 222.262 0.399998 225.526 0.399998H242.23C243.958 0.399998 245.398 0.687998 246.55 1.264C247.734 1.808 248.614 2.624 249.19 3.712C249.798 4.768 250.214 5.888 250.438 7.072C250.662 8.224 250.774 9.6 250.774 11.2C250.774 12.8 250.662 14.192 250.438 15.376C250.214 16.56 249.798 17.696 249.19 18.784C248.614 19.84 247.734 20.656 246.55 21.232C245.398 21.808 243.958 22.096 242.23 22.096H226.966V34H220.63ZM226.966 17.056H239.11C241.158 17.056 242.518 16.608 243.19 15.712C243.894 14.784 244.246 13.28 244.246 11.2C244.246 9.12 243.894 7.648 243.19 6.784C242.518 5.888 241.158 5.44 239.11 5.44H229.366C228.406 5.44 227.766 5.6 227.446 5.92C227.126 6.24 226.966 6.88 226.966 7.84V17.056ZM289.403 7.936L280.811 30.352C280.235 31.792 279.627 32.832 278.987 33.472C278.347 34.08 277.355 34.384 276.011 34.384C274.667 34.384 273.675 34.08 273.035 33.472C272.395 32.832 271.787 31.792 271.211 30.352L262.619 7.936C262.331 7.2 262.059 6.832 261.803 6.832C261.451 6.832 261.275 7.168 261.275 7.84L261.419 34H255.083V4.432C255.083 1.488 256.891 0.0159998 260.507 0.0159998C262.235 0.0159998 263.515 0.383999 264.347 1.12C265.179 1.856 265.867 2.928 266.411 4.336L275.099 26.752C275.483 27.584 275.787 28 276.011 28C276.235 28 276.539 27.584 276.923 26.752L285.611 4.336C286.155 2.928 286.843 1.856 287.675 1.12C288.507 0.383999 289.787 0.0159998 291.515 0.0159998C295.131 0.0159998 296.939 1.488 296.939 4.432V34H290.603L290.795 7.84C290.795 7.168 290.603 6.832 290.219 6.832C289.963 6.832 289.691 7.2 289.403 7.936ZM301.7 34V28.96H320.324C322.436 28.96 323.492 27.744 323.492 25.312C323.492 23.456 322.404 22.192 320.228 21.52L306.98 17.344C304.868 16.672 303.38 15.648 302.516 14.272C301.684 12.864 301.268 10.944 301.268 8.512C301.268 6.016 301.908 4.048 303.188 2.608C304.468 1.136 306.388 0.399998 308.948 0.399998H328.292V5.44H310.628C309.764 5.44 309.076 5.712 308.564 6.256C308.052 6.8 307.796 7.648 307.796 8.8C307.796 9.728 307.972 10.496 308.324 11.104C308.708 11.712 309.508 12.208 310.724 12.592L323.012 16.48C325.54 17.28 327.332 18.32 328.388 19.6C329.476 20.88 330.02 22.8 330.02 25.36C330.02 27.984 329.428 30.08 328.244 31.648C327.092 33.216 325.284 34 322.82 34H301.7Z" fill="#EE0033"/>
</svg>
