<svg width="379" height="98" viewBox="0 0 379 98" fill="none" xmlns="http://www.w3.org/2000/svg">
<path d="M45.2851 54.8684H42.0136C40.7099 54.8684 39.6522 55.8999 39.6522 57.1473V80.6806C39.6522 81.952 40.7099 82.9595 42.0136 82.9595H45.2851C46.5888 82.9595 47.622 81.928 47.622 80.6806V57.1713C47.6466 55.8999 46.5888 54.8684 45.2851 54.8684Z" fill="#EE0033"/>
<path d="M33.5764 54.8684C31.5101 54.8684 29.7882 56.0678 28.9519 57.795L20.2934 75.7388C20.0966 76.1706 19.6785 76.8423 19.3341 76.8423C18.9897 76.8423 18.5961 76.1466 18.3747 75.7388L9.66704 57.795C8.8307 56.0678 7.10884 54.8684 5.0426 54.8684H0L13.7749 80.8245C15.1278 83.3673 17.932 83.3194 19.3587 83.3194C21.3265 83.3194 23.6387 83.2234 24.8686 80.8245L38.6189 54.8684H33.5764Z" fill="#EE0033"/>
<path d="M185.396 50.5503C185.396 49.2789 184.338 48.2714 183.034 48.2714H179.763C178.459 48.2714 177.426 49.3029 177.426 50.5503V73.7957C177.426 77.3461 178.729 79.4091 181.042 80.8964C183.28 82.3358 185.863 82.9595 190.709 82.9595H193.316C194.62 82.9595 195.678 81.928 195.678 80.6805V78.1857H193.71C192.283 78.1857 189.282 78.1377 187.511 76.9622C185.199 75.4749 185.396 72.8121 185.396 70.917V50.5503Z" fill="#EE0033"/>
<path d="M134.428 78.2338C133.002 78.2338 130.001 78.1858 128.23 77.0103C125.917 75.523 126.114 72.8602 126.114 70.9651V59.6423H133.838C135.142 59.6423 136.175 58.6108 136.175 57.3633V54.8685H126.114V50.5504C126.114 49.279 125.057 48.2475 123.753 48.2475H120.481C119.178 48.2475 118.144 49.279 118.144 50.5504V54.8685H101.541V50.5504C101.541 49.279 100.483 48.2475 99.204 48.2475H95.9324C94.6287 48.2475 93.5956 49.279 93.5956 50.5504V54.8685H88.6268V57.3633C88.6268 58.6347 89.6845 59.6423 90.9636 59.6423H93.571V73.8198C93.571 77.3702 94.8747 79.4332 97.1869 80.9206C99.4253 82.3599 102.008 82.9836 106.854 82.9836H109.461C110.765 82.9836 111.798 81.9521 111.798 80.7047V78.2098H109.83C108.404 78.2098 105.403 78.1618 103.632 76.9864C101.319 75.499 101.516 72.8363 101.516 70.9411V59.6423H118.12V73.8198C118.12 77.3702 119.424 79.4332 121.736 80.9206C123.974 82.3599 126.557 82.9836 131.403 82.9836H134.01C135.314 82.9836 136.372 81.9521 136.372 80.7047V78.2098H134.428V78.2338Z" fill="#EE0033"/>
<path d="M85.7243 80.7046V78.2097H68.1121C65.1849 78.2097 61.8642 77.8979 60.831 74.8753C60.5605 74.0356 60.3637 72.2125 60.3637 71.013H81.3212C82.7479 71.013 84.1008 70.7971 85.2077 69.9575C86.7082 68.7821 86.905 67.1508 86.905 65.7115C86.905 62.1611 86.0195 58.6587 81.8132 56.5956C78.4925 54.9404 74.1386 54.7964 69.9077 54.7964C66.5132 54.7964 60.3883 54.7964 56.428 57.4592C52.4923 60.122 52.1479 63.9842 52.1479 69.2378C52.1479 72.9561 52.3447 76.8184 54.7307 79.4812C57.7317 82.7677 62.0855 83.0315 65.7506 83.0315H83.4121C84.6912 83.0075 85.7243 81.976 85.7243 80.7046ZM78.6646 64.584C78.6646 65.3276 78.4679 66.2392 76.8936 66.2392H65.5785C62.7005 66.2392 60.3637 67.5106 60.3637 69.0939V66.2392C60.4375 64.3921 60.3637 62.8328 61.9871 61.4174C64.1518 59.4983 67.4233 59.5703 69.5388 59.5703C71.7772 59.5703 74.36 59.6662 76.3524 60.8417C77.5085 61.5134 78.6646 62.8328 78.6646 64.584Z" fill="#EE0033"/>
<path d="M171.793 80.7046V78.2097H154.181C151.254 78.2097 147.933 77.8979 146.9 74.8753C146.629 74.0356 146.432 72.2125 146.432 71.013H167.39C168.817 71.013 170.17 70.7971 171.276 69.9575C172.777 68.7821 172.974 67.1508 172.974 65.7115C172.974 62.1611 172.088 58.6587 167.882 56.5956C164.561 54.9404 160.207 54.7964 155.976 54.7964C152.582 54.7964 146.457 54.7964 142.497 57.4592C138.561 60.122 138.217 63.9842 138.217 69.2378C138.217 72.9561 138.413 76.8184 140.799 79.4812C143.8 82.7677 148.154 83.0315 151.819 83.0315H169.481C170.735 83.0075 171.793 81.976 171.793 80.7046ZM164.709 64.584C164.709 65.3276 164.512 66.2392 162.938 66.2392H151.623C148.745 66.2392 146.408 67.5106 146.408 69.0939V66.2392C146.482 64.3921 146.408 62.8328 148.031 61.4174C150.196 59.4983 153.467 59.5703 155.583 59.5703C157.821 59.5703 160.404 59.6662 162.397 60.8417C163.553 61.5134 164.709 62.8328 164.709 64.584Z" fill="#EE0033"/>
<path d="M45.2851 47H42.0136C40.7099 47 39.6522 48.0315 39.6522 49.279V54.8444H39.6768C39.8982 53.549 41.4232 52.1816 43.6125 52.1816H45.2359C46.5396 52.1816 47.5728 51.1501 47.5728 49.9027V49.279C47.6466 48.0315 46.5888 47 45.2851 47Z" fill="#EE0033"/>
<path d="M205.5 83V38.375C205.5 33.125 208.05 30.5 213.15 30.5H239.25C241.95 30.5 244.2 30.95 246 31.85C247.85 32.7 249.225 33.975 250.125 35.675C251.075 37.325 251.725 39.075 252.075 40.925C252.425 42.725 252.6 44.875 252.6 47.375C252.6 49.875 252.425 52.05 252.075 53.9C251.725 55.75 251.075 57.525 250.125 59.225C249.225 60.875 247.85 62.15 246 63.05C244.2 63.95 241.95 64.4 239.25 64.4H215.4V83H205.5ZM215.4 56.525H234.375C237.575 56.525 239.7 55.825 240.75 54.425C241.85 52.975 242.4 50.625 242.4 47.375C242.4 44.125 241.85 41.825 240.75 40.475C239.7 39.075 237.575 38.375 234.375 38.375H219.15C217.65 38.375 216.65 38.625 216.15 39.125C215.65 39.625 215.4 40.625 215.4 42.125V56.525ZM312.958 42.275L299.533 77.3C298.633 79.55 297.683 81.175 296.683 82.175C295.683 83.125 294.133 83.6 292.033 83.6C289.933 83.6 288.383 83.125 287.383 82.175C286.383 81.175 285.433 79.55 284.533 77.3L271.108 42.275C270.658 41.125 270.233 40.55 269.833 40.55C269.283 40.55 269.008 41.075 269.008 42.125L269.233 83H259.333V36.8C259.333 32.2 262.158 29.9 267.808 29.9C270.508 29.9 272.508 30.475 273.808 31.625C275.108 32.775 276.183 34.45 277.033 36.65L290.608 71.675C291.208 72.975 291.683 73.625 292.033 73.625C292.383 73.625 292.858 72.975 293.458 71.675L307.033 36.65C307.883 34.45 308.958 32.775 310.258 31.625C311.558 30.475 313.558 29.9 316.258 29.9C321.908 29.9 324.733 32.2 324.733 36.8V83H314.833L315.133 42.125C315.133 41.075 314.833 40.55 314.233 40.55C313.833 40.55 313.408 41.125 312.958 42.275ZM332.172 83V75.125H361.272C364.572 75.125 366.222 73.225 366.222 69.425C366.222 66.525 364.522 64.55 361.122 63.5L340.422 56.975C337.122 55.925 334.797 54.325 333.447 52.175C332.147 49.975 331.497 46.975 331.497 43.175C331.497 39.275 332.497 36.2 334.497 33.95C336.497 31.65 339.497 30.5 343.497 30.5H373.722V38.375H346.122C344.772 38.375 343.697 38.8 342.897 39.65C342.097 40.5 341.697 41.825 341.697 43.625C341.697 45.075 341.972 46.275 342.522 47.225C343.122 48.175 344.372 48.95 346.272 49.55L365.472 55.625C369.422 56.875 372.222 58.5 373.872 60.5C375.572 62.5 376.422 65.5 376.422 69.5C376.422 73.6 375.497 76.875 373.647 79.325C371.847 81.775 369.022 83 365.172 83H332.172Z" fill="#4B4A4F"/>
</svg>
