<?xml version="1.0" encoding="iso-8859-1"?>
<!-- Generator: Adobe Illustrator 19.0.0, SVG Export Plug-In . SVG Version: 6.00 Build 0)  -->
<svg xmlns="http://www.w3.org/2000/svg" xmlns:xlink="http://www.w3.org/1999/xlink" version="1.1" id="Capa_1" x="0px" y="0px" viewBox="0 0 409.6 409.6" style="enable-background:new 0 0 409.6 409.6;" xml:space="preserve">
<path style="fill:#64798A;" d="M392.205,0H17.394C7.788,0,0,7.788,0,17.393v374.811c0,9.607,7.788,17.396,17.394,17.396h374.811  c9.606,0,17.395-7.789,17.395-17.396V17.393C409.6,7.788,401.811,0,392.205,0z"/>
<path style="fill:#3A556A;" d="M328.772,169.589v-22.342H214.248V121h72.749V98.658h-72.749V72.404h45.018V50.062h-45.018V20.26  h-22.342v29.801H150.4v22.342h41.506v26.254H122.67V121h69.237v26.247H80.895v22.342h111.011v26.247H122.67v22.342h69.237v26.255  H150.4v22.342h41.506v24.618h-60.052c-26.814,0-50.199,20.663-51.003,47.465c-0.833,27.734,21.403,50.482,48.95,50.482  c22.777,0,41.922-15.549,47.4-36.612c1.866-7.174,8.049-12.363,15.461-12.363h20.855c7.324,0,13.573,5.045,15.383,12.142  c5.456,21.387,24.991,37.149,48.153,36.827c26.008-0.36,47.909-22.26,48.272-48.267c0.383-27.369-21.687-49.674-48.967-49.674  h-62.109v-24.618h45.018v-22.342h-45.018v-26.255h72.749v-22.342h-72.749v-26.247H328.772z"/>
<g>
</g>
<g>
</g>
<g>
</g>
<g>
</g>
<g>
</g>
<g>
</g>
<g>
</g>
<g>
</g>
<g>
</g>
<g>
</g>
<g>
</g>
<g>
</g>
<g>
</g>
<g>
</g>
<g>
</g>
</svg>
