<?xml version="1.0" encoding="iso-8859-1"?>
<!-- Generator: Adobe Illustrator 19.0.0, SVG Export Plug-In . SVG Version: 6.00 Build 0)  -->
<svg xmlns="http://www.w3.org/2000/svg" xmlns:xlink="http://www.w3.org/1999/xlink" version="1.1" id="Capa_1" x="0px" y="0px" viewBox="0 0 409.6 409.6" style="enable-background:new 0 0 409.6 409.6;" xml:space="preserve">
<path style="fill:#64798A;" d="M392.957,0H16.643C7.451,0,0,7.883,0,17.607v349.582c0,9.724,7.451,17.607,16.643,17.607h376.314  c9.192,0,16.643-7.883,16.643-17.607V17.607C409.6,7.883,402.149,0,392.957,0z"/>
<rect x="29.793" y="29.788" style="fill:#EBF0F3;" width="350.003" height="245.811"/>
<g>
	<path style="fill:#3A556A;" d="M41.523,404.287c0,2.936,2.248,5.313,5.023,5.313h57.917c2.773,0,5.022-2.377,5.022-5.313v-19.492   H41.523V404.287z"/>
	<path style="fill:#3A556A;" d="M300.114,384.795v19.492c0,2.936,2.249,5.313,5.023,5.313h57.917c2.775,0,5.022-2.377,5.022-5.313   v-19.492H300.114z"/>
</g>
<path style="fill:#EBF0F3;" d="M96.7,317.472c-2.237-10.094-10.382-18.239-20.476-20.477c-20.032-4.442-37.488,13.014-33.044,33.048  c2.239,10.093,10.383,18.236,20.477,20.473C83.688,354.954,101.141,337.502,96.7,317.472z"/>
<path style="fill:#D5D6DB;" d="M89.032,320.684c-1.253-8.176-7.935-14.857-16.111-16.109c-13.123-2.01-24.263,9.134-22.247,22.257  c1.255,8.172,7.934,14.85,16.107,16.102C79.903,344.945,91.043,333.805,89.032,320.684z"/>
<path style="fill:#64798A;" d="M66.805,320.768c0,1.683,1.364,3.047,3.047,3.047c1.684,0,3.047-1.363,3.047-3.047v-16.085  c0-0.013-0.007-0.024-0.007-0.037c-0.996-0.159-1.998-0.307-3.04-0.307c-1.041,0-2.042,0.148-3.04,0.307  c0,0.013-0.008,0.024-0.008,0.037V320.768z"/>
<path style="fill:#EBF0F3;" d="M173.655,317.467c-2.239-10.093-10.384-18.236-20.477-20.473  c-20.031-4.44-37.484,13.013-33.043,33.043c2.237,10.094,10.383,18.239,20.476,20.476  C160.643,354.956,178.098,337.5,173.655,317.467z"/>
<path style="fill:#D5D6DB;" d="M165.986,320.677c-1.255-8.172-7.935-14.85-16.108-16.101c-13.122-2.011-24.261,9.128-22.251,22.249  c1.253,8.176,7.935,14.858,16.111,16.109C156.861,344.944,168.002,333.8,165.986,320.677z"/>
<path style="fill:#64798A;" d="M143.76,320.768c0,1.683,1.365,3.047,3.047,3.047c1.684,0,3.047-1.363,3.047-3.047v-16.085  c0-0.013-0.008-0.024-0.008-0.037c-0.996-0.159-1.998-0.307-3.04-0.307c-1.041,0-2.043,0.148-3.04,0.307  c0,0.013-0.007,0.024-0.007,0.037V320.768z"/>
<path style="fill:#D5D6DB;" d="M308.192,320.778c-1.128-5.95-5.996-10.818-11.946-11.945c-10.713-2.031-19.93,7.187-17.899,17.9  c1.128,5.95,5.996,10.818,11.946,11.945C301.005,340.708,310.222,331.49,308.192,320.778z"/>
<path style="fill:#EBF0F3;" d="M303.803,321.052c-0.917-3.8-4.034-6.916-7.833-7.832c-8.085-1.948-15.184,5.151-13.236,13.236  c0.916,3.8,4.032,6.917,7.832,7.833C298.652,336.239,305.754,329.138,303.803,321.052z"/>
<path style="fill:#D5D6DB;" d="M366.839,320.778c-1.128-5.95-5.996-10.818-11.946-11.946c-10.713-2.03-19.93,7.187-17.899,17.9  c1.128,5.95,5.996,10.818,11.946,11.945C359.652,340.708,368.869,331.49,366.839,320.778z"/>
<path style="fill:#EBF0F3;" d="M362.45,321.052c-0.917-3.8-4.034-6.916-7.834-7.832c-8.087-1.948-15.187,5.155-13.234,13.242  c0.917,3.797,4.03,6.909,7.827,7.826C357.298,336.242,364.402,329.139,362.45,321.052z"/>
<polygon style="fill:#E56353;" points="310.474,251.439 264.889,75.032 211.412,181.512 181.871,93.868 133.173,231.039   106.227,80.857 72.351,138.181 29.791,138.181 29.791,130.733 68.104,130.733 110.009,59.81 135.543,202.094 182.06,71.09   212.766,162.224 267.143,53.97 310.94,223.468 339.5,126.363 379.812,126.363 379.812,133.81 345.071,133.81 "/>
<g>
</g>
<g>
</g>
<g>
</g>
<g>
</g>
<g>
</g>
<g>
</g>
<g>
</g>
<g>
</g>
<g>
</g>
<g>
</g>
<g>
</g>
<g>
</g>
<g>
</g>
<g>
</g>
<g>
</g>
</svg>
