<?xml version="1.0" encoding="iso-8859-1"?>
<!-- Generator: Adobe Illustrator 19.0.0, SVG Export Plug-In . SVG Version: 6.00 Build 0)  -->
<svg xmlns="http://www.w3.org/2000/svg" xmlns:xlink="http://www.w3.org/1999/xlink" version="1.1" id="Capa_1" x="0px" y="0px" viewBox="0 0 409.6 409.6" style="enable-background:new 0 0 409.6 409.6;" xml:space="preserve">
<g>
	<path style="fill:#3A556A;" d="M171.318,198.293c-8.024-6.515-16.633-14.129-21.609-20.42c2.7,18.083,8.939,36.184,21.166,51.212   c0.148,0.139,0.294,0.283,0.443,0.421V198.293z"/>
	<path style="fill:#3A556A;" d="M242.727,198.293v30.936c0.172-0.16,0.34-0.323,0.51-0.485c2.239-4.017,11.477-21.464,18.616-47.95   C256.777,186.431,249.544,192.758,242.727,198.293z"/>
</g>
<path style="fill:#F6C358;" d="M246.697,170.756c-5.418,5.178-10.583,9.798-14.325,13.065c-3.698,3.229-8.239,4.976-12.922,4.976  h-20.883c-4.683,0-9.225-1.747-12.923-4.976c-3.741-3.266-8.907-7.887-14.325-13.065v38.776v0.166v102.241h75.379V209.698v-0.511  V170.756z"/>
<path style="fill:#FCD462;" d="M171.318,198.293c5.133,4.168,10.027,7.888,13.571,10.517c3.503,2.599,7.805,4.006,12.242,4.006  h19.784c4.436,0,8.739-1.406,12.242-4.006c3.544-2.63,8.438-6.349,13.57-10.517c6.817-5.535,14.05-11.862,19.126-17.5  c6.336-23.51,11.014-54.132,7.662-88.791h-19.377l-15.293-22.4l-11.175,21.223h-66.466c0,0-14.001,43.464-7.494,87.047  C154.685,184.164,163.295,191.778,171.318,198.293z"/>
<path style="fill:#64798A;" d="M293.664,123.177c-7.646-108.816-61.76-89.405-61.76-89.405  C148.38,2.009,124.852,87.298,124.852,87.298c-18.55,105.767,46.467,142.343,46.467,142.343c-0.152-0.183-0.293-0.371-0.443-0.555  c-12.227-15.028-18.466-33.129-21.166-51.212c-6.508-43.583,7.494-87.047,7.494-87.047h66.466l11.175-21.223l15.293,22.4h19.377  c3.352,34.659-1.326,65.281-7.662,88.791c-7.139,26.486-16.376,43.933-18.616,47.95c-0.328,0.587-0.51,0.897-0.51,0.897  C314.135,196.701,293.664,123.177,293.664,123.177z"/>
<path style="fill:#E1E6E9;" d="M320.876,280.942c-11.21-16.52-52.264-34.204-69.401-41.046c0.136,0.987,0.257,1.973,0.351,2.962  c9.111,9.326,25.242,29.521,29.689,59.185l-28.983,3.768l10.033,11.651l-53.613,40.471V409.6h133.72  C342.672,409.6,345.994,317.958,320.876,280.942z"/>
<path style="fill:#FFFFFF;" d="M262.566,317.463l-10.033-11.651l28.983-3.768c-4.447-29.664-20.577-49.86-29.689-59.185  c1.464,15.373-2,31.012-7.533,45.304c-12.471,32.222-35.342,57.591-35.342,57.591s-22.871-25.37-35.341-57.591  c-5.99-15.477-9.558-32.532-7.062-49.12l-0.827-2.082l0,0l0,0c-0.003,0.002-29.775,23.056-36.075,65.083l28.983,3.768  l-10.033,11.651l52.848,40.471V409.6h0.765h5.946h0.796v-51.666L262.566,317.463z"/>
<g>
	<path style="fill:#EBF0F3;" d="M166.678,238.122l-0.956-1.162l0,0l0.827,2.082C166.596,238.735,166.629,238.428,166.678,238.122z"/>
	<path style="fill:#EBF0F3;" d="M148.597,317.463l10.033-11.651l-28.983-3.768c6.3-42.027,36.072-65.081,36.075-65.083   c-0.012,0.005-62.718,22.939-76.998,43.981C63.607,317.958,66.928,409.6,66.928,409.6h134.517v-51.666L148.597,317.463z"/>
</g>
<path style="fill:#44C4A1;" d="M173.611,288.162c12.471,32.222,35.341,57.591,35.341,57.591s22.871-25.37,35.342-57.591  c-8.42-28.366-27.833-29.829-27.833-29.829s0.914,4.371,0.929,10.81c0.02,8.354-1.471,20.189-8.438,30.486  c-0.278-0.41-0.536-0.825-0.796-1.24c-11.315-18.023-6.712-40.057-6.712-40.057S182.032,259.797,173.611,288.162z M208.953,305.812  c2.202,0,3.986,1.784,3.986,3.985c0,2.202-1.784,3.986-3.986,3.986c-2.201,0-3.985-1.784-3.985-3.986  C204.967,307.596,206.751,305.812,208.953,305.812z M208.953,322.043c2.202,0,3.986,1.784,3.986,3.986s-1.784,3.986-3.986,3.986  c-2.201,0-3.985-1.784-3.985-3.986S206.751,322.043,208.953,322.043z"/>
<g>
	<circle style="fill:#FFFFFF;" cx="208.952" cy="309.811" r="3.983"/>
	<circle style="fill:#FFFFFF;" cx="208.952" cy="326.042" r="3.983"/>
</g>
<g>
	<path style="fill:#E1E6E9;" d="M142.321,386.384c-2.567,0-5.097-0.416-7.585-1.247c-23.696-7.926-34.4-51.212-34.844-53.051   l4.9-1.184c0.102,0.424,10.488,42.418,31.547,49.456c7.473,2.495,15.676,0.144,24.366-7.004l3.202,3.893   C156.514,383.328,149.282,386.384,142.321,386.384z"/>
	<path style="fill:#E1E6E9;" d="M119.05,391.773c-3.397,0-7.066-0.472-10.998-1.415l1.177-4.9   c10.945,2.626,19.343,1.157,24.974-4.361c15.858-15.54,6.825-57.847,6.731-58.272l4.923-1.079   c0.407,1.847,9.719,45.454-8.122,62.946C132.927,389.407,126.668,391.773,119.05,391.773z"/>
</g>
<g>
	<path style="fill:#2F4859;" d="M136.262,303.9c-4.07-3.716-8.63-5.919-13.265-6.48c9.64-43.091,49.363-62.26,49.776-62.454   l-3.208-6.846c-1.853,0.867-44.898,21.559-54.411,69.955c-12.163,3.606-19.272,19.042-16.274,35.648   c0.113,0.621,0.729,1.027,1.347,0.898l5.198-1.08c0.6-0.124,0.976-0.706,0.87-1.308c-2.342-13.216,2.877-25.267,11.922-27.146   c4.274-0.888,8.869,0.675,12.947,4.397c4.181,3.819,7.285,9.381,8.805,15.753c0.142,0.596,0.718,0.978,1.318,0.853l5.199-1.08   c0.618-0.129,1.022-0.744,0.878-1.359C145.507,315.746,141.591,308.765,136.262,303.9z"/>
	<path style="fill:#2F4859;" d="M276.79,246.227c-13.535-15.521-28.142-18.294-28.756-18.405l-1.337,7.442   c0.517,0.093,51.587,10.353,44.406,103.702l7.538,0.581C301.843,297.924,294.491,266.527,276.79,246.227z"/>
</g>
<g>
	<path style="fill:#64798A;" d="M166.536,366.578c-2.04-0.208-5.628,4.377-6.983,6.222c-0.328,0.445-0.327,1.048-0.005,1.498   l2.922,4.09c0.322,0.45,0.891,0.646,1.419,0.481c2.184-0.685,7.684-2.593,8.148-4.59   C172.575,371.973,168.89,366.818,166.536,366.578z"/>
	<path style="fill:#64798A;" d="M98.791,390.372c1.195,1.667,7.006,1.32,9.286,1.115c0.55-0.05,1.001-0.45,1.126-0.988l1.131-4.898   c0.124-0.539-0.106-1.096-0.58-1.382c-1.958-1.184-7.029-4.042-8.835-3.068C98.837,382.275,97.413,388.449,98.791,390.372z"/>
</g>
<path style="fill:#EBF0F3;" d="M299.277,345.355l0.648-7.412c0.046-0.515-0.336-0.968-0.85-1.014l-8.178-0.714  c-0.515-0.046-0.968,0.336-1.013,0.85l-0.526,6.012c-13.051,0.087-23.434,11.411-21.939,24.786  c1.138,10.179,9.369,18.401,19.548,19.529c13.416,1.486,24.772-8.976,24.772-22.091C311.739,356.534,306.65,348.974,299.277,345.355  z"/>
<path style="fill:#D5D6DB;" d="M302.726,362.663c-1-5.271-5.313-9.583-10.584-10.582c-9.491-1.799-17.656,6.369-15.855,15.861  c1,5.27,5.31,9.58,10.581,10.579C296.36,380.322,304.527,372.153,302.726,362.663z"/>
<path style="fill:#EBF0F3;" d="M300.75,362.419c-0.978-4.056-4.304-7.382-8.359-8.36c-8.63-2.081-16.209,5.495-14.128,14.127  c0.977,4.057,4.304,7.384,8.361,8.361C295.254,378.626,302.83,371.048,300.75,362.419z"/>
<path style="fill:#64798A;" d="M290.923,364.565c0.655,1.425-0.726,2.808-2.153,2.154c-0.288-0.132-0.548-0.392-0.68-0.679  c-0.654-1.427,0.729-2.809,2.155-2.153C290.531,364.018,290.791,364.277,290.923,364.565z"/>
<g>
	<path style="fill:#3EA69B;" d="M173.611,288.162c8.421-28.366,27.833-29.829,27.833-29.829   c-28.962-16.09-31.644-32.18-31.644-32.18c-1.443,3.939-2.461,7.94-3.123,11.969c-0.05,0.306-0.082,0.613-0.129,0.921   C164.053,255.63,167.621,272.686,173.611,288.162z"/>
	<path style="fill:#3EA69B;" d="M244.294,288.162c5.532-14.292,8.996-29.931,7.533-45.304c-0.095-0.989-0.216-1.976-0.351-2.962   c-0.638-4.628-1.716-9.226-3.371-13.743c0,0-2.682,16.09-31.644,32.18C216.461,258.333,235.874,259.797,244.294,288.162z"/>
</g>
<path style="fill:#44C4A1;" d="M309.653,16.8C241.956-6.114,172.675-5.112,102.004,16.9c-3.406,1.061-5.279,4.549-4.153,7.798  l24.501,70.742h166.726l24.554-70.894C314.734,21.361,312.962,17.92,309.653,16.8z"/>
<path style="fill:#FFFFFF;" d="M240.455,40.796c-2.639-13.923-13.868-25.151-27.791-27.79c-24.92-4.723-46.361,16.719-41.637,41.639  c2.639,13.922,13.867,25.149,27.789,27.789C223.736,87.157,245.179,65.715,240.455,40.796z"/>
<polygon style="fill:#E56353;" points="229.302,40.268 213.192,40.268 213.192,24.159 198.289,24.159 198.289,40.268   182.181,40.268 182.181,55.172 198.289,55.172 198.289,71.281 213.192,71.281 213.192,55.172 229.302,55.172 "/>
<g>
</g>
<g>
</g>
<g>
</g>
<g>
</g>
<g>
</g>
<g>
</g>
<g>
</g>
<g>
</g>
<g>
</g>
<g>
</g>
<g>
</g>
<g>
</g>
<g>
</g>
<g>
</g>
<g>
</g>
</svg>
