<?xml version="1.0" encoding="iso-8859-1"?>
<!-- Generator: Adobe Illustrator 19.0.0, SVG Export Plug-In . SVG Version: 6.00 Build 0)  -->
<svg xmlns="http://www.w3.org/2000/svg" xmlns:xlink="http://www.w3.org/1999/xlink" version="1.1" id="Capa_1" x="0px" y="0px" viewBox="0 0 409.6 409.6" style="enable-background:new 0 0 409.6 409.6;" xml:space="preserve">
<path style="fill:#EBF0F3;" d="M245.217,328.766c-90.786,0-164.384-73.597-164.384-164.384c0-84.368,63.572-153.852,145.42-163.26  C219.202,0.389,212.046,0,204.8,0C91.693,0,0,91.692,0,204.8c0,113.107,91.693,204.8,204.8,204.8  c113.108,0,204.8-91.693,204.8-204.8c0-7.246-0.388-14.402-1.122-21.453C399.07,265.195,329.586,328.766,245.217,328.766z"/>
<polygon style="fill:#D15241;" points="290.073,126.346 290.073,59.646 255.456,59.646 255.456,262.277 290.073,262.277   290.073,195.577 356.773,195.577 356.773,126.346 "/>
<polygon style="fill:#E56353;" points="220.842,59.646 220.842,126.346 154.142,126.346 154.142,195.577 220.842,195.577   220.842,262.277 255.456,262.277 255.456,59.646 "/>
<g>
</g>
<g>
</g>
<g>
</g>
<g>
</g>
<g>
</g>
<g>
</g>
<g>
</g>
<g>
</g>
<g>
</g>
<g>
</g>
<g>
</g>
<g>
</g>
<g>
</g>
<g>
</g>
<g>
</g>
</svg>
