<?xml version="1.0" encoding="iso-8859-1"?>
<!-- Generator: Adobe Illustrator 19.0.0, SVG Export Plug-In . SVG Version: 6.00 Build 0)  -->
<svg xmlns="http://www.w3.org/2000/svg" xmlns:xlink="http://www.w3.org/1999/xlink" version="1.1" id="Capa_1" x="0px" y="0px" viewBox="0 0 409.6 409.6" style="enable-background:new 0 0 409.6 409.6;" xml:space="preserve">
<path style="fill:#F6C358;" d="M137.886,83.606l-20.512-33.437c-1.918-3.127-5.323-5.032-8.991-5.032H10.547  C4.723,45.137,0,49.859,0,55.683v298.233c0,5.825,4.723,10.547,10.547,10.547h322.535c5.825,0,10.547-4.723,10.547-10.547V99.185  c0-5.826-4.722-10.547-10.547-10.547H146.876C143.209,88.637,139.804,86.732,137.886,83.606z"/>
<path style="fill:#FCD462;" d="M398.955,132.959H74.678c-4.649,0-8.76,3.099-10.15,7.652L0.495,350.278  c-2.149,7.033,2.97,14.185,10.15,14.185h324.277c4.65,0,8.76-3.099,10.151-7.652l64.033-209.667  C411.254,140.111,406.135,132.959,398.955,132.959z"/>
<path style="fill:#FFFFFF;" d="M282.5,238.525c-4.401-34.918-32.598-63.115-67.517-67.514c-51.248-6.458-94.345,36.642-87.883,87.89  c4.403,34.917,32.6,63.112,67.517,67.511C245.864,332.869,288.959,289.772,282.5,238.525z"/>
<polygon style="fill:#E56353;" points="261.531,229.295 224.216,229.295 224.216,191.98 185.385,191.98 185.385,229.295   148.069,229.295 148.069,268.128 185.385,268.128 185.385,305.442 224.216,305.442 224.216,268.128 261.531,268.128 "/>
<g>
</g>
<g>
</g>
<g>
</g>
<g>
</g>
<g>
</g>
<g>
</g>
<g>
</g>
<g>
</g>
<g>
</g>
<g>
</g>
<g>
</g>
<g>
</g>
<g>
</g>
<g>
</g>
<g>
</g>
</svg>
