<?xml version="1.0" encoding="iso-8859-1"?>
<!-- Generator: Adobe Illustrator 19.0.0, SVG Export Plug-In . SVG Version: 6.00 Build 0)  -->
<svg xmlns="http://www.w3.org/2000/svg" xmlns:xlink="http://www.w3.org/1999/xlink" version="1.1" id="Capa_1" x="0px" y="0px" viewBox="0 0 409.6 409.6" style="enable-background:new 0 0 409.6 409.6;" xml:space="preserve">
<path style="fill:#EBF0F3;" d="M330.638,178.833c0-43.61-35.353-78.963-78.963-78.963c-9.371,0-18.319,1.717-26.658,4.713  c-20.292-19.617-47.873-31.741-78.324-31.741c-62.284,0-112.776,50.491-112.776,112.776c0,2.397,0.211,4.742,0.358,7.102  C13.584,206.958,0,230.78,0,257.795c0,43.61,35.353,78.963,78.963,78.963h251.675c43.609,0,78.962-35.353,78.962-78.963  C409.6,214.186,374.247,178.833,330.638,178.833z"/>
<g>
	<path style="fill:#D5D6DB;" d="M34.239,212.409l6.938-4.774l-0.086-1.373c-2.961,2.181-5.689,4.593-8.197,7.199   C33.355,213.124,33.766,212.733,34.239,212.409z"/>
	<path style="fill:#D5D6DB;" d="M330.638,193.728h-14.895v-14.895c0-35.327-28.742-64.07-64.066-64.07   c-7.266,0-14.538,1.292-21.629,3.837l-8.72,3.134l-6.662-6.444c-18.386-17.767-42.524-27.553-67.971-27.553   c-26.854,0-51.207,10.884-68.911,28.455c16.66-13.13,37.622-21.036,60.432-21.036c25.447,0,49.585,9.785,67.971,27.552l6.662,6.445   l8.72-3.135c7.091-2.545,14.364-3.836,21.629-3.836c35.323,0,64.065,28.742,64.065,64.07v14.894h14.895   c35.324,0,64.065,28.742,64.065,64.069c0,17.144-6.806,32.699-17.811,44.209c15.903-11.67,26.291-30.435,26.291-51.628   C394.703,222.47,365.961,193.728,330.638,193.728z"/>
</g>
<polygon style="fill:#E56353;" points="242.651,209.802 194.5,209.802 194.5,161.65 143.028,161.65 143.028,209.802 94.877,209.802   94.877,261.274 143.028,261.274 143.028,309.425 194.5,309.425 194.5,261.274 242.651,261.274 "/>
<g>
</g>
<g>
</g>
<g>
</g>
<g>
</g>
<g>
</g>
<g>
</g>
<g>
</g>
<g>
</g>
<g>
</g>
<g>
</g>
<g>
</g>
<g>
</g>
<g>
</g>
<g>
</g>
<g>
</g>
</svg>
