<?xml version="1.0" encoding="iso-8859-1"?>
<!-- Generator: Adobe Illustrator 19.0.0, SVG Export Plug-In . SVG Version: 6.00 Build 0)  -->
<svg xmlns="http://www.w3.org/2000/svg" xmlns:xlink="http://www.w3.org/1999/xlink" version="1.1" id="Capa_1" x="0px" y="0px" viewBox="0 0 409.6 409.6" style="enable-background:new 0 0 409.6 409.6;" xml:space="preserve">
<path style="fill:#EBF0F3;" d="M394.193,0.02H15.408C6.898,0.02,0,6.918,0,15.428v295.641c0,8.51,6.898,15.408,15.408,15.408h28.166  v70.226c0,11.449,13.843,17.184,21.939,9.087l79.314-79.313h249.366c8.509,0,15.408-6.898,15.408-15.408V15.427  C409.6,6.918,402.701,0.02,394.193,0.02z"/>
<polygon style="fill:#E56353;" points="170.253,48.203 170.253,116.463 101.994,116.463 101.994,185.554 170.253,185.554   170.253,253.814 204.8,253.814 204.8,48.203 "/>
<polygon style="fill:#D15241;" points="239.346,116.463 239.346,48.203 204.8,48.203 204.8,253.814 239.346,253.814   239.346,185.554 307.605,185.554 307.605,116.463 "/>
<g>
</g>
<g>
</g>
<g>
</g>
<g>
</g>
<g>
</g>
<g>
</g>
<g>
</g>
<g>
</g>
<g>
</g>
<g>
</g>
<g>
</g>
<g>
</g>
<g>
</g>
<g>
</g>
<g>
</g>
</svg>
