<?xml version="1.0" encoding="iso-8859-1"?>
<!-- Generator: Adobe Illustrator 19.0.0, SVG Export Plug-In . SVG Version: 6.00 Build 0)  -->
<svg xmlns="http://www.w3.org/2000/svg" xmlns:xlink="http://www.w3.org/1999/xlink" version="1.1" id="Capa_1" x="0px" y="0px" viewBox="0 0 409.6 409.6" style="enable-background:new 0 0 409.6 409.6;" xml:space="preserve">
<path style="fill:#D5D6DB;" d="M0,350.978v17.159c0,9.019,7.312,16.33,16.331,16.33h376.937c9.019,0,16.331-7.311,16.331-16.33  v-17.159H0z"/>
<path style="fill:#EBF0F3;" d="M393.269,89.279h-103V36.304c0-6.168-5.004-11.171-11.171-11.171H130.502  c-6.167,0-11.171,5.003-11.171,11.171v52.976h-103C7.312,89.279,0,96.591,0,105.611v247.631c0,9.019,7.312,16.33,16.331,16.33  h376.937c9.019,0,16.331-7.311,16.331-16.33V105.611C409.6,96.591,402.288,89.279,393.269,89.279z M141.672,47.475h126.255v41.805  H141.672V47.475z"/>
<path style="fill:#E56353;" d="M204.8,159.982c-38.353,0-69.444,31.092-69.444,69.445c0,38.352,31.091,69.444,69.444,69.444  s69.444-31.091,69.444-69.444C274.244,191.073,243.153,159.982,204.8,159.982z M250.998,245.609h-30.014v30.014h-32.368v-30.014  h-30.014v-32.368h30.014v-30.014h32.368v30.014h30.014V245.609z"/>
<g>
</g>
<g>
</g>
<g>
</g>
<g>
</g>
<g>
</g>
<g>
</g>
<g>
</g>
<g>
</g>
<g>
</g>
<g>
</g>
<g>
</g>
<g>
</g>
<g>
</g>
<g>
</g>
<g>
</g>
</svg>
