<?xml version="1.0" encoding="iso-8859-1"?>
<!-- Generator: Adobe Illustrator 19.0.0, SVG Export Plug-In . SVG Version: 6.00 Build 0)  -->
<svg version="1.1" id="Capa_1" xmlns="http://www.w3.org/2000/svg" xmlns:xlink="http://www.w3.org/1999/xlink" x="0px" y="0px"
	 viewBox="0 0 512 512" style="enable-background:new 0 0 512 512;" xml:space="preserve">
<path style="fill:#6C4127;" d="M414.898,44.138h-61.793H158.898H97.104c-19.5,0-35.31,15.81-35.31,35.31V476.69
	c0,19.5,15.81,35.31,35.31,35.31h317.793c19.5,0,35.31-15.81,35.31-35.31V79.448C450.208,59.948,434.398,44.138,414.898,44.138z"/>
<path style="fill:#AFB6BB;" d="M308.181,26.483c-9.454,0-18.291-4.537-23.896-12.147C277.885,5.65,267.627,0,256.001,0
	c-11.626,0-21.884,5.65-28.284,14.336c-5.606,7.609-14.442,12.147-23.896,12.147h-22.59c-12.332,0-22.334,10.002-22.334,22.334
	v48.287h194.207V48.817c0-12.332-10.002-22.334-22.334-22.334C330.77,26.483,308.181,26.483,308.181,26.483z"/>
<circle style="fill:#FFFFFF;" cx="256.001" cy="52.966" r="17.655"/>
<path style="fill:#F2ECBF;" d="M397.242,79.448h-44.138v17.655h-97.103h-97.103V79.448H114.76c-9.754,0-17.655,7.901-17.655,17.655
	v361.931c0,9.754,7.901,17.655,17.655,17.655h282.483c9.754,0,17.655-7.901,17.655-17.655V97.103
	C414.898,87.349,406.997,79.448,397.242,79.448z"/>
<g>
	<path style="fill:#C9C191;" d="M317.794,300.138H203.035c-4.873,0-8.828-3.946-8.828-8.828s3.955-8.828,8.828-8.828h114.759
		c4.873,0,8.828,3.946,8.828,8.828S322.667,300.138,317.794,300.138z"/>
	<path style="fill:#C9C191;" d="M167.725,300.138h-26.483c-4.873,0-8.828-3.946-8.828-8.828s3.955-8.828,8.828-8.828h26.483
		c4.873,0,8.828,3.946,8.828,8.828S172.598,300.138,167.725,300.138z"/>
	<path style="fill:#C9C191;" d="M370.76,300.138h-17.655c-4.873,0-8.828-3.946-8.828-8.828s3.955-8.828,8.828-8.828h17.655
		c4.873,0,8.828,3.946,8.828,8.828C379.587,296.192,375.632,300.138,370.76,300.138z"/>
	<path style="fill:#C9C191;" d="M282.484,335.448h-26.483c-4.873,0-8.828-3.946-8.828-8.828s3.955-8.828,8.828-8.828h26.483
		c4.873,0,8.828,3.946,8.828,8.828C291.311,331.502,287.357,335.448,282.484,335.448z"/>
	<path style="fill:#C9C191;" d="M220.691,335.448h-79.448c-4.873,0-8.828-3.946-8.828-8.828s3.955-8.828,8.828-8.828h79.448
		c4.873,0,8.828,3.946,8.828,8.828C229.518,331.502,225.563,335.448,220.691,335.448z"/>
	<path style="fill:#C9C191;" d="M370.76,335.448h-52.966c-4.873,0-8.828-3.946-8.828-8.828s3.955-8.828,8.828-8.828h52.966
		c4.873,0,8.828,3.946,8.828,8.828C379.587,331.502,375.632,335.448,370.76,335.448z"/>
	<path style="fill:#C9C191;" d="M185.38,370.759h-44.138c-4.873,0-8.828-3.946-8.828-8.828s3.955-8.828,8.828-8.828h44.138
		c4.873,0,8.828,3.946,8.828,8.828S190.253,370.759,185.38,370.759z"/>
	<path style="fill:#C9C191;" d="M370.76,370.759H220.691c-4.873,0-8.828-3.946-8.828-8.828s3.955-8.828,8.828-8.828H370.76
		c4.873,0,8.828,3.946,8.828,8.828C379.587,366.813,375.632,370.759,370.76,370.759z"/>
	<path style="fill:#C9C191;" d="M326.622,406.069h-70.621c-4.873,0-8.828-3.946-8.828-8.828s3.955-8.828,8.828-8.828h70.621
		c4.873,0,8.828,3.946,8.828,8.828C335.449,402.123,331.495,406.069,326.622,406.069z"/>
	<path style="fill:#C9C191;" d="M220.691,406.069h-79.448c-4.873,0-8.828-3.946-8.828-8.828s3.955-8.828,8.828-8.828h79.448
		c4.873,0,8.828,3.946,8.828,8.828C229.518,402.123,225.563,406.069,220.691,406.069z"/>
	<path style="fill:#C9C191;" d="M370.76,406.069h-8.828c-4.873,0-8.828-3.946-8.828-8.828s3.955-8.828,8.828-8.828h8.828
		c4.873,0,8.828,3.946,8.828,8.828C379.587,402.123,375.632,406.069,370.76,406.069z"/>
	<path style="fill:#C9C191;" d="M264.829,441.379h-61.793c-4.873,0-8.828-3.946-8.828-8.828s3.955-8.828,8.828-8.828h61.793
		c4.873,0,8.828,3.946,8.828,8.828C273.656,437.433,269.701,441.379,264.829,441.379z"/>
	<path style="fill:#C9C191;" d="M167.725,441.379h-26.483c-4.873,0-8.828-3.946-8.828-8.828s3.955-8.828,8.828-8.828h26.483
		c4.873,0,8.828,3.946,8.828,8.828C176.553,437.433,172.598,441.379,167.725,441.379z"/>
	<path style="fill:#C9C191;" d="M370.76,441.379h-70.621c-4.873,0-8.828-3.946-8.828-8.828s3.955-8.828,8.828-8.828h70.621
		c4.873,0,8.828,3.946,8.828,8.828C379.587,437.433,375.632,441.379,370.76,441.379z"/>
</g>
<rect x="247.163" y="150.673" transform="matrix(0.7071 -0.7071 0.7071 0.7071 -56.0895 235.3022)" style="fill:#FFFFFF;" width="17.655" height="69.369"/>
<g>
	<path style="fill:#DD352E;" d="M225.236,167.097l-12.041,12.041c-13.524,13.515-13.524,35.522,0,49.055
		c6.762,6.762,15.642,10.134,24.523,10.134s17.761-3.381,24.523-10.134l12.041-12.041L225.236,167.097z"/>
	<path style="fill:#DD352E;" d="M298.806,142.566c-13.524-13.515-35.522-13.515-49.046,0l-12.041,12.041l49.046,49.055
		l12.041-12.041C312.33,178.105,312.33,156.098,298.806,142.566z"/>
</g>
<g>
</g>
<g>
</g>
<g>
</g>
<g>
</g>
<g>
</g>
<g>
</g>
<g>
</g>
<g>
</g>
<g>
</g>
<g>
</g>
<g>
</g>
<g>
</g>
<g>
</g>
<g>
</g>
<g>
</g>
</svg>
